<?xml version="1.0" encoding="UTF-8"?>
<svg id="Layer_1" data-name="Layer 1" xmlns="http://www.w3.org/2000/svg" viewBox="0 0 5.44 7">
  <polygon points="4.67 5.44 4.67 6.22 3.89 6.22 3.11 6.22 2.33 6.22 1.56 6.22 .78 6.22 .78 5.44 0 5.44 0 6.22 0 7 .78 7 1.56 7 2.33 7 3.11 7 3.89 7 4.67 7 5.44 7 5.44 6.22 5.44 5.44 4.67 5.44"/>
  <rect x="3.89" y="2.33" width=".78" height=".78"/>
  <rect x=".78" y="2.33" width=".78" height=".78"/>
  <polygon points="2.33 3.89 2.33 4.67 3.11 4.67 3.11 3.89 3.89 3.89 3.89 3.11 3.11 3.11 3.11 2.33 3.11 1.56 3.11 .78 3.11 0 2.33 0 2.33 .78 2.33 1.56 2.33 2.33 2.33 3.11 1.56 3.11 1.56 3.89 2.33 3.89"/>
</svg>