<?xml version="1.0" encoding="UTF-8"?>
<svg id="Layer_1" xmlns="http://www.w3.org/2000/svg" version="1.1" viewBox="0 0 16 15.9">
  <!-- Generator: Adobe Illustrator 29.7.1, SVG Export Plug-In . SVG Version: 2.1.1 Build 8)  -->
  <defs>
    <style>
      .st0 {
        fill: #e43815;
      }

      .st1 {
        fill: #f8f6f4;
      }
    </style>
  </defs>
  <g>
    <rect class="st1" x="10" y="10" width="3" height="1"/>
    <polygon class="st1" points="14 7 11 7 11 8 13 8 13 10 14 10 14 7"/>
    <polygon class="st1" points="13 5 13 4 10 4 10 5 9 5 9 10 10 10 10 5 13 5 13 6 14 6 14 6 14 5 13 5"/>
    <rect class="st1" x="4" y="8" width="1" height="1"/>
    <polygon class="st1" points="6 9 5 9 5 10 6 10 6 12 7 12 7 5 6 5 6 9"/>
    <polygon class="st1" points="3 7 3 5 2 5 2 12 3 12 3 8 4 8 4 7 3 7"/>
  </g>
  <path class="st0" d="M15,0H7V1H0v15h9v-1h7V0h-1ZM4,7v1h1v1h1v-4h1v7h-1v-2h-1v-1h-1v-1h-1v4h-1v-7h1v2h1ZM14,6h0s-1,0-1,0v-1h-3v5h3v-2h-2v-1h3v3h-1v1h-3v-1h-1v-5h1v-1h3v1h1v1Z"/>
</svg>