<?xml version="1.0" encoding="UTF-8"?>
<svg id="Layer_1" xmlns="http://www.w3.org/2000/svg" baseProfile="tiny" version="1.2" viewBox="0 0 120 57.4" width="120" height="57.4">
  <!-- Generator: Adobe Illustrator 29.7.1, SVG Export Plug-In . SVG Version: 2.1.1 Build 8)  -->
  <path d="M84,19.2h-2.4v12h7.2v-12h-4.8Z"/>
  <path d="M67.2,21.5h-2.4v12h7.2v-12h-4.8Z"/>
  <path d="M33.6,26.3h-2.4v12h7.2v-12h-4.8Z"/>
  <path d="M108,0v2.4h-16.8v2.4h-16.8v2.4h-16.8v2.4h-16.8v2.4h-16.8v2.4H7.2v2.4H0v40.7h12v-2.4h16.8v-2.4h16.8v-2.4h16.8v-2.4h16.8v-2.4h16.8v-2.4h16.8v-2.4h7.2V0h-12ZM24,28.7v14.4h-2.4v-4.8h-2.4v-2.4h-2.4v-2.4h-2.4v9.6h-2.4v-16.8h2.4v4.8h2.4v2.4h2.4v2.4h2.4v-9.6h2.4v2.4ZM40.8,28.7v9.6h-2.4v2.4h-7.2v-2.4h-2.4v-12h2.4v-2.4h7.2v2.4h2.4v2.4ZM57.6,26.3h-2.4v-2.4h-7.2v12h7.2v-4.8h-4.8v-2.4h7.2v7.2h-2.4v2.4h-7.2v-2.4h-2.4v-12h2.4v-2.4h7.2v2.4h2.4v2.4ZM74.4,23.9v9.6h-2.4v2.4h-7.2v-2.4h-2.4v-12h2.4v-2.4h7.2v2.4h2.4v2.4ZM91.2,21.5v9.6h-2.4v2.4h-7.2v-2.4h-2.4v-12h2.4v-2.4h7.2v2.4h2.4v2.4ZM108,19.1v9.6h-2.4v2.4h-9.6V14.4h9.6v2.4h2.4v2.4Z"/>
  <path d="M100.8,16.8h-2.4v12h7.2v-12h-4.8Z"/>
</svg>